<?xml version="1.0" standalone="no" ?>
<!DOCTYPE svg PUBLIC "-//W3C//DTD SVG 20010904//EN"
          "http://www.w3.org/TR/2001/REC-SVG-20010904/DTD/svg10.dtd">
<svg version="1.0" xmlns="http://www.w3.org/2000/svg"
     width="798.000000pt" height="798.000000pt" viewBox="0 0 798.000000 798.000000"
     preserveAspectRatio="xMidYMid meet">

	<g transform="translate(0.000000,798.000000) scale(0.100000,-0.100000)"
       fill="#000000" stroke="none">
		<path d="M3943 7535 c-104 -29 -197 -90 -364 -241 -162 -146 -251 -209 -324
-233 -93 -29 -255 -22 -475 22 -311 62 -295 60 -379 37 -102 -29 -141 -51
-195 -111 -61 -68 -112 -175 -181 -384 -74 -224 -110 -298 -182 -370 -71 -71
-151 -110 -387 -190 -220 -73 -326 -127 -392 -197 -107 -113 -118 -244 -49
-568 31 -144 38 -197 39 -300 1 -116 -1 -129 -26 -182 -39 -83 -79 -138 -196
-268 -58 -63 -120 -134 -139 -157 -54 -65 -118 -186 -137 -257 l-18 -65 27
-81 c32 -96 94 -193 202 -315 141 -159 230 -275 259 -338 27 -58 29 -69 28
-187 -2 -139 -33 -317 -60 -337 -13 -9 -10 -12 17 -18 21 -5 34 -3 39 5 4 7
19 65 31 129 33 159 33 322 1 402 -30 76 -98 170 -227 314 -183 205 -242 300
-251 407 -11 120 45 223 242 443 138 154 205 247 236 324 19 47 22 75 22 176
0 101 -7 153 -43 330 -94 461 -46 542 409 695 413 139 466 190 600 590 99 292
160 394 268 443 76 35 214 29 442 -19 159 -33 204 -38 320 -38 131 -1 137 0
200 30 86 42 132 76 302 225 223 196 305 243 418 243 113 0 195 -47 418 -243
170 -149 216 -183 302 -225 63 -30 69 -31 200 -30 116 0 161 5 320 38 228 48
366 54 442 19 108 -49 169 -151 268 -443 134 -400 187 -451 600 -590 360 -121
439 -190 448 -395 3 -77 -3 -121 -39 -300 -36 -177 -43 -229 -43 -330 0 -101
3 -129 22 -176 31 -77 98 -170 236 -324 197 -220 253 -323 242 -443 -9 -107
-68 -202 -251 -407 -269 -301 -295 -394 -215 -770 l22 -100 39 3 c37 4 38 5
19 21 -30 25 -63 210 -64 356 -1 112 1 124 28 182 29 63 118 179 259 338 110
124 171 220 203 317 l26 83 -21 70 c-32 109 -97 208 -245 373 -149 167 -184
215 -224 300 -25 53 -27 66 -26 182 1 103 8 156 39 300 69 324 58 455 -49 568
-66 70 -172 124 -392 197 -236 80 -316 119 -387 190 -72 72 -108 146 -182 370
-69 209 -120 316 -181 384 -54 60 -93 82 -195 111 -84 23 -68 25 -379 -37
-220 -44 -382 -51 -475 -22 -73 24 -162 87 -324 233 -239 215 -378 280 -518
241z" fill="#FFFFFF" />
		<path d="M3940 7381 c-83 -27 -166 -85 -320 -222 -58 -52 -126 -109 -150 -128
-25 -19 -49 -38 -53 -41 -5 -4 27 -1 70 6 193 34 334 47 533 47 199 0 340 -13
533 -47 43 -7 75 -10 70 -6 -4 3 -28 22 -53 41 -24 19 -92 76 -150 128 -199
177 -275 222 -385 227 -38 2 -81 0 -95 -5z" fill="#00a650" />
		<path d="M2443 6980 c-61 -13 -93 -32 -144 -87 -57 -61 -96 -142 -169 -357
-32 -94 -65 -188 -74 -209 l-17 -38 63 53 c250 212 592 412 886 519 92 34 100
47 29 48 -16 1 -106 17 -201 36 -187 37 -308 49 -373 35z" fill="#00a650"/>
		<path d="M5430 6983 c-19 -2 -112 -20 -207 -39 -94 -19 -184 -34 -200 -35 -71
-1 -63 -14 29 -48 294 -107 636 -307 886 -519 l63 -53 -17 38 c-9 21 -42 115
-74 209 -32 94 -73 202 -91 240 -39 82 -108 160 -166 186 -42 18 -159 30 -223
21z" fill="#00a650" />
		<path d="M3810 6949 c-568 -40 -1136 -263 -1590 -625 -122 -97 -382 -362 -472
-479 -147 -195 -264 -388 -353 -585 -282 -622 -331 -1326 -140 -1988 19 -68
46 -148 60 -179 15 -31 34 -80 43 -110 14 -42 21 -53 39 -53 12 0 28 -3 37 -6
13 -5 11 6 -9 50 -14 31 -25 58 -25 60 0 13 35 13 55 0 19 -13 23 -22 18 -45
-4 -19 -1 -29 7 -29 8 0 10 -8 6 -25 -4 -14 -2 -25 4 -25 5 0 81 -9 167 -20
194 -24 421 -46 658 -64 l180 -14 18 21 c9 12 34 43 55 69 42 54 58 60 47 21
-17 -61 -22 -114 -11 -110 6 2 16 33 23 68 14 79 30 122 42 115 16 -10 6 -112
-14 -149 -10 -20 -17 -38 -15 -40 3 -2 56 -7 118 -10 101 -5 131 0 102 18 -17
10 -11 44 11 66 14 14 19 28 15 44 -5 18 -1 27 16 36 18 10 24 8 40 -11 29
-36 31 -64 9 -114 -22 -50 -18 -54 25 -31 39 20 67 19 89 -5 18 -19 55 -28 55
-12 0 20 -75 116 -153 194 -48 48 -87 91 -87 96 0 12 272 223 543 421 32 24
56 45 53 48 -7 7 -92 -49 -203 -133 -109 -84 -163 -111 -163 -84 0 6 6 10 13
10 8 0 19 12 26 27 15 32 60 91 118 155 24 26 43 54 43 63 0 19 -3 19 -51 -6
-90 -45 -167 -142 -204 -257 -20 -61 -51 -94 -66 -72 -5 8 -7 33 -4 55 17 124
149 275 289 334 107 44 139 64 153 91 15 31 10 36 -19 16 -34 -24 -70 -19
-117 14 -69 51 -75 95 -20 158 32 36 36 52 14 52 -9 0 -15 9 -15 24 0 13 -7
26 -15 30 -9 3 -15 18 -15 40 0 38 4 39 97 52 44 5 57 12 80 40 41 52 49 44
56 -47 6 -76 18 -109 38 -109 5 0 9 20 9 45 0 31 10 65 30 105 42 82 43 169 3
227 -39 56 -68 89 -141 156 -70 63 -113 80 -67 25 17 -20 24 -38 21 -50 -3
-10 -9 -27 -12 -37 -4 -13 0 -21 13 -26 10 -4 46 -38 81 -76 46 -51 62 -76 62
-97 0 -54 -48 -71 -144 -51 -82 16 -138 72 -86 86 30 8 25 26 -20 74 -22 24
-40 46 -40 50 0 10 53 29 75 26 28 -3 26 27 -3 31 -12 2 -34 -6 -49 -18 -36
-28 -56 -10 -25 23 27 29 27 42 2 99 -12 28 -26 97 -35 179 -8 74 -18 149 -21
166 -9 47 21 57 52 17 21 -26 22 -31 9 -51 -19 -29 -19 -47 1 -85 19 -36 54
-68 108 -99 l38 -21 -7 21 c-5 16 -2 21 10 21 21 0 15 20 -11 34 -40 22 -84
51 -84 56 0 5 14 6 73 1 10 0 22 -11 27 -23 6 -15 9 -17 9 -7 2 33 98 52 143
28 11 -6 22 -9 24 -6 7 7 -32 91 -50 106 -23 19 -20 27 15 45 23 11 36 13 50
5 15 -8 19 -6 19 6 0 9 -7 18 -15 21 -22 9 -18 24 6 24 12 0 36 -15 53 -32 26
-26 34 -45 40 -87 4 -29 19 -88 33 -130 27 -78 30 -107 39 -368 9 -216 -15
-332 -91 -441 -61 -89 -64 -127 -25 -281 24 -98 -66 -379 -172 -538 -66 -97
-142 -190 -229 -280 -79 -81 -87 -93 -66 -93 18 0 46 26 117 110 52 60 96 110
98 110 8 0 -45 -79 -100 -146 l-57 -71 67 -6 c37 -3 128 -6 202 -6 74 -1 181
-4 236 -7 114 -7 109 -10 135 71 10 28 22 49 28 47 7 -1 9 7 6 20 -3 13 -1 46
4 73 5 28 9 41 10 30 2 -27 21 -6 32 37 8 29 8 30 4 3 -7 -49 -45 -186 -61
-216 -8 -16 -14 -37 -14 -49 0 -19 6 -20 140 -20 l140 0 25 49 c29 58 55 129
55 153 0 9 9 32 20 51 14 23 19 44 15 60 -5 18 -2 26 8 29 13 3 13 9 3 43 -7
22 -18 63 -25 90 -7 28 -24 63 -39 78 -22 23 -24 27 -7 21 11 -4 26 -12 33
-17 7 -5 15 -7 18 -4 12 12 -48 55 -141 102 -121 62 -237 166 -311 281 -55 86
-92 122 -144 144 -29 12 -32 16 -26 48 3 19 12 42 20 51 51 58 116 244 116
336 l0 50 73 39 c126 68 240 149 318 226 140 137 162 237 76 333 -29 32 -188
123 -272 155 -16 7 -72 29 -124 49 l-95 38 -24 80 c-81 269 -105 333 -169 460
-57 112 -102 175 -183 256 -180 179 -393 214 -632 101 -163 -76 -357 -228
-438 -345 -80 -113 -140 -241 -146 -312 -9 -109 -4 -102 -91 -110 -163 -13
-310 -67 -388 -143 -93 -90 -118 -240 -61 -372 70 -161 215 -312 360 -376 54
-23 65 -33 76 -63 15 -43 147 -223 186 -253 22 -18 31 -20 55 -11 27 10 31 8
58 -25 43 -55 58 -113 65 -247 4 -66 9 -143 12 -171 5 -51 5 -51 -38 -79 -24
-16 -51 -39 -61 -52 -16 -20 -27 -23 -80 -23 -42 0 -75 -6 -102 -20 -22 -11
-58 -24 -81 -30 -22 -5 -60 -23 -85 -38 -24 -16 -78 -37 -119 -47 -95 -22
-205 -73 -248 -114 -18 -17 -44 -36 -58 -41 -16 -7 -24 -16 -21 -24 5 -12 0
-12 -26 -5 -26 8 -34 6 -42 -7 -16 -28 -66 -84 -74 -84 -5 0 -13 19 -20 41
-18 60 3 94 90 144 38 22 69 43 69 48 0 29 250 147 312 147 17 0 59 17 97 40
37 22 74 40 82 40 9 0 19 3 23 7 14 14 122 43 164 43 27 0 48 6 60 18 10 10
27 25 38 33 19 13 20 21 13 119 -9 123 -22 197 -36 211 -6 6 -30 15 -54 20
-78 18 -102 44 -240 255 -35 54 -48 65 -108 93 -109 50 -266 225 -347 386 -40
81 -46 99 -51 181 l-6 90 74 132 c40 73 77 132 81 132 5 0 7 4 4 8 -6 10 148
92 173 92 10 0 35 7 54 15 20 8 56 15 80 15 58 0 107 18 107 38 0 21 89 242
105 262 7 8 19 27 26 42 21 41 204 233 279 293 75 60 308 185 344 185 13 0 41
7 62 16 33 14 64 16 190 11 154 -6 199 -16 209 -48 3 -9 39 -38 79 -63 97 -61
243 -219 266 -291 7 -22 29 -54 48 -72 26 -24 39 -48 53 -100 11 -37 19 -79
19 -93 0 -14 5 -31 11 -37 6 -6 28 -71 49 -144 l37 -131 49 -24 c27 -12 54
-23 60 -23 10 -1 62 -22 164 -69 41 -18 145 -79 179 -104 41 -31 44 -20 7 31
-20 27 -36 51 -36 54 0 3 15 20 34 39 55 55 72 126 68 291 l-3 137 69 98 c47
66 73 113 81 148 9 35 28 71 60 111 26 33 59 87 72 121 24 61 25 62 79 78 30
9 84 20 120 23 55 6 77 15 145 59 72 46 93 54 190 73 106 20 115 20 245 5 74
-8 172 -18 217 -21 76 -5 87 -9 161 -54 238 -148 401 -314 584 -596 l65 -100
-5 -133 c-3 -109 -7 -132 -18 -128 -17 7 -17 11 0 -66 11 -46 16 -161 20 -436
5 -420 4 -432 -65 -536 -25 -37 -37 -66 -34 -80 2 -11 7 -70 10 -131 3 -60 8
-130 11 -155 5 -38 2 -48 -15 -64 -12 -11 -21 -27 -21 -37 0 -9 -4 -19 -9 -21
-6 -1 -46 -38 -90 -80 -44 -43 -87 -78 -95 -78 -20 0 -20 -9 4 -155 11 -66 20
-137 20 -159 0 -40 -46 -135 -120 -246 -20 -30 -54 -85 -74 -122 -33 -59 -35
-68 -19 -68 68 0 566 55 659 72 l61 12 48 120 c304 775 248 1675 -148 2406
-40 75 -174 280 -243 375 -112 153 -328 375 -494 508 -330 266 -751 469 -1161
561 -296 66 -555 86 -849 65z m-598 -891 c80 -41 172 -127 235 -219 88 -128
183 -345 246 -563 l34 -118 120 -48 c147 -58 315 -144 359 -182 42 -37 67
-101 59 -148 -21 -112 -212 -293 -422 -399 -72 -36 -73 -36 -73 -16 0 9 12 20
28 25 152 54 376 230 422 332 44 98 19 163 -82 214 -178 90 -629 208 -913 239
-82 9 -214 25 -292 36 -78 10 -159 19 -180 19 -22 0 -45 6 -51 13 -10 9 -92
12 -340 12 -324 0 -328 0 -437 -28 -116 -29 -192 -68 -221 -112 -16 -25 -16
-27 5 -48 13 -14 23 -42 27 -73 17 -144 71 -319 122 -397 22 -34 69 -75 147
-130 33 -24 36 -72 4 -62 -95 30 -232 148 -312 267 -74 113 -100 187 -95 275
14 245 242 348 748 336 204 -5 606 -36 675 -52 36 -9 55 -8 44 4 -8 7 -174 32
-294 44 -167 16 -542 34 -582 28 l-35 -6 7 67 c19 179 148 379 339 525 109 84
149 110 226 145 110 50 142 63 147 58 3 -3 -6 -19 -20 -35 -14 -17 -39 -54
-55 -83 -17 -29 -76 -103 -131 -163 -55 -60 -98 -111 -97 -113 2 -1 37 9 78
22 156 53 312 67 443 42 39 -8 74 -11 78 -7 21 20 -83 272 -136 329 l-22 25
60 -8 c40 -4 86 -20 137 -47z m-352 -867 c41 -8 39 -9 -33 -10 -50 -1 -76 3
-72 9 7 12 42 12 105 1z m-380 -16 c-7 -9 -15 -13 -17 -11 -7 7 7 26 19 26 6
0 6 -6 -2 -15z m463 -71 c76 -20 81 -22 66 -40 -9 -12 -15 -12 -27 -2 -12 10
-16 10 -19 1 -4 -10 -12 -9 -39 2 -26 11 -34 11 -34 2 0 -8 -31 -17 -82 -25
-102 -17 -147 -39 -219 -112 -45 -44 -58 -64 -57 -86 1 -40 -26 -100 -50 -113
-26 -14 -37 -63 -21 -93 6 -13 38 -50 69 -84 83 -86 89 -116 56 -259 -14 -60
-26 -136 -26 -169 0 -72 24 -167 55 -221 25 -41 112 -132 102 -105 -27 71 -30
90 -17 105 29 35 56 12 173 -143 26 -34 47 -66 47 -69 0 -4 12 -20 27 -35 23
-24 24 -28 8 -28 -25 0 -101 46 -120 72 -8 13 -15 17 -15 11 0 -15 89 -93 106
-93 19 0 38 -40 25 -53 -7 -7 -29 -2 -71 16 -76 33 -95 34 -116 1 -15 -22 -15
-32 -5 -79 7 -30 24 -71 38 -92 14 -21 37 -63 51 -93 14 -30 32 -63 40 -73 23
-26 1 -42 -56 -41 -75 1 -154 52 -226 148 -32 42 -60 75 -63 72 -11 -11 106
-166 184 -245 78 -79 96 -100 74 -87 -27 17 -281 -154 -281 -188 0 -7 -15 -27
-34 -45 l-34 -33 -10 69 c-6 37 -14 97 -17 133 -7 80 19 444 35 484 8 22 8 37
-1 60 -6 17 -15 105 -19 196 -9 183 -24 237 -83 298 -17 17 -26 32 -20 32 7 0
15 -4 18 -10 3 -5 11 -10 17 -10 6 0 2 10 -10 23 -12 13 -27 37 -33 55 -11 33
-29 43 -29 17 0 -8 -6 -15 -14 -15 -19 0 -28 -14 -20 -34 9 -23 24 -19 25 7 1
18 2 19 6 3 3 -10 0 -23 -5 -28 -20 -20 -61 2 -93 48 -33 49 -35 72 -1 30 24
-31 42 -33 42 -6 0 11 -6 20 -13 20 -8 0 -22 9 -32 20 -13 14 -22 17 -30 10
-21 -17 -106 107 -104 152 0 21 2 20 13 -7 25 -64 50 -105 64 -105 10 0 12 6
7 18 -20 49 -27 143 -12 159 11 11 27 -38 29 -89 1 -29 5 -61 10 -70 10 -21
39 -23 56 -6 18 18 33 -7 30 -47 -2 -21 1 -30 12 -30 20 0 25 48 8 86 -11 24
-17 29 -37 24 -20 -5 -22 -3 -15 12 17 36 10 101 -14 126 -14 14 -20 30 -16
40 7 19 -51 77 -78 77 -31 0 -58 -48 -59 -109 l-2 -56 -7 45 c-9 54 6 127 29
139 17 9 51 14 88 12 15 -1 32 -15 49 -41 20 -29 30 -37 35 -28 6 9 14 0 26
-29 10 -24 21 -43 24 -43 3 0 16 11 29 25 23 24 23 24 6 92 -17 71 -11 176 14
273 5 22 14 57 20 78 11 44 76 117 133 150 21 12 57 23 80 23 23 1 56 5 72 9
56 14 224 11 288 -6z m177 -165 c42 -46 50 -86 50 -251 0 -95 -8 -110 -49 -88
-16 8 -21 20 -21 51 0 22 -6 52 -14 67 -7 15 -16 58 -19 95 -4 57 -9 74 -32
97 -23 24 -25 31 -16 49 19 35 58 27 101 -20z m-302 3 c3 -10 -10 -12 -54 -10
-36 2 -59 8 -62 16 -3 10 9 13 54 10 36 -2 59 -8 62 -16z m176 -32 c42 -46 43
-51 17 -74 -23 -21 -41 -14 -41 17 0 12 -9 36 -19 54 -18 29 -18 43 0 43 3 0
23 -18 43 -40z m-304 22 c0 -5 -19 -24 -42 -42 -29 -23 -37 -26 -23 -10 17 20
18 23 3 17 -27 -10 -21 -1 15 22 35 22 47 26 47 13z m65 -42 c-27 -12 -43 -12
-25 0 8 5 22 9 30 9 10 0 8 -3 -5 -9z m638 -2 c11 -34 -36 -52 -73 -28 -13 8
-13 11 -1 22 11 10 14 10 18 1 5 -14 24 -18 22 -5 -4 24 26 33 34 10z m85 0
c18 -18 15 -28 -8 -28 -13 0 -20 7 -20 20 0 23 10 26 28 8z m48 -25 c-4 -4
-11 -1 -16 7 -16 25 -11 35 7 17 9 -9 13 -20 9 -24z m-946 -73 c-6 -11 -17
-20 -25 -20 -22 0 -18 40 8 80 l22 35 3 -37 c2 -20 -2 -46 -8 -58z m-348 50
c-2 -16 -6 -30 -8 -30 -2 0 -4 14 -4 30 0 17 4 30 8 30 5 0 7 -13 4 -30z m546
-4 c-3 -18 -11 -21 -55 -24 -29 -2 -53 1 -53 6 0 18 45 40 78 39 27 -1 32 -5
30 -21z m-612 -72 c-3 -9 -6 -18 -6 -20 0 -3 -4 -3 -10 1 -11 7 -2 35 12 35 6
0 7 -7 4 -16z m629 -4 c-27 -12 -35 -12 -35 0 0 6 12 10 28 9 24 0 25 -1 7 -9z
m-538 -145 c3 -38 1 -66 -3 -62 -4 4 -9 37 -9 73 -1 36 -7 70 -13 76 -7 7 -12
23 -12 38 1 53 33 -54 37 -125z m-57 0 c0 -5 -8 4 -18 20 -10 17 -17 38 -14
49 4 13 8 8 18 -20 8 -22 14 -43 14 -49z m974 -52 c4 -9 0 -23 -8 -32 -14 -13
-17 -13 -35 3 -12 11 -21 14 -26 7 -9 -15 -25 -14 -25 2 0 36 81 54 94 20z
m-1008 -60 c7 -10 14 -24 14 -32 0 -8 -9 -2 -20 12 -11 14 -20 28 -20 31 0 12
13 6 26 -11z m1364 -126 c0 -6 -1 -8 -3 -6 -1 2 -20 27 -41 54 l-38 50 41 -44
c23 -24 41 -48 41 -54z m-1337 22 c-7 -7 -10 1 -10 23 -1 31 0 32 10 10 7 -15
7 -26 0 -33z m969 -205 l12 -25 13 25 c17 32 38 33 54 4 l11 -21 19 24 c18 22
20 23 32 7 10 -12 17 -14 24 -7 7 7 17 4 32 -12 22 -23 27 -38 14 -40 -14 -3
-171 -9 -195 -9 -7 1 -26 -2 -42 -6 -32 -8 -49 9 -40 41 15 50 48 60 66 19z
m389 -1 c-12 -20 -14 -14 -5 12 4 9 9 14 11 11 3 -2 0 -13 -6 -23z m-525 1 c9
24 33 19 46 -9 16 -36 -1 -53 -37 -37 -18 8 -32 9 -45 2 -11 -6 -21 -6 -24 -1
-3 5 -15 7 -26 4 -21 -6 -27 11 -11 36 7 11 11 10 19 -4 9 -17 10 -17 22 4 11
22 13 22 31 5 17 -15 19 -15 25 0z m-116 -25 c0 -5 -12 -9 -27 -9 -26 0 -26 1
-8 14 20 14 35 12 35 -5z m119 -95 c2 -2 -9 -4 -25 -4 -22 0 -25 -3 -14 -10 8
-5 12 -11 10 -14 -3 -2 -18 7 -33 20 l-29 25 44 -7 c23 -4 45 -8 47 -10z m161
-6 c0 -12 -1 -19 -3 -17 -1 2 -9 12 -16 22 -12 14 -11 17 3 17 10 0 16 -8 16
-22z m-87 5 c-7 -2 -19 -2 -25 0 -7 3 -2 5 12 5 14 0 19 -2 13 -5z m37 -23 c0
-5 -5 -10 -11 -10 -5 0 -7 5 -4 10 3 6 8 10 11 10 2 0 4 -4 4 -10z m-78 -21
c-13 -5 -30 -5 -38 -1 -9 5 -1 8 23 9 33 1 35 0 15 -8z m708 -333 c4 -12 5
-38 0 -57 l-8 -34 -1 37 c-1 20 -5 48 -11 63 -7 18 -7 24 1 20 5 -4 14 -17 19
-29z m90 -131 c13 -14 21 -25 18 -25 -2 0 -15 11 -28 25 -13 14 -21 25 -18 25
2 0 15 -11 28 -25z m-985 -15 c-3 -5 -12 -10 -18 -10 -7 0 -6 4 3 10 19 12 23
12 15 0z m1036 -37 c13 -16 12 -17 -3 -4 -10 7 -18 15 -18 17 0 8 8 3 21 -13z
m-1544 -94 l-14 -34 2 31 c2 34 16 65 22 47 2 -6 -2 -26 -10 -44z m1613 41 c0
-5 -2 -10 -4 -10 -3 0 -8 5 -11 10 -3 6 -1 10 4 10 6 0 11 -4 11 -10z m-1640
-25 c0 -2 -10 -9 -22 -15 -22 -11 -22 -10 -4 4 21 17 26 19 26 11z m1397 -27
c-3 -8 -6 -5 -6 6 -1 11 2 17 5 13 3 -3 4 -12 1 -19z m317 3 c3 -5 -1 -11 -9
-15 -9 -3 -15 0 -15 9 0 16 16 20 24 6z m-1780 -33 c-3 -35 -15 -68 -25 -68
-4 0 -3 15 2 33 6 17 12 38 15 45 6 19 10 14 8 -10z m1683 -15 c-3 -10 -5 -4
-5 12 0 17 2 24 5 18 2 -7 2 -21 0 -30z m-60 -25 c-3 -8 -6 -5 -6 6 -1 11 2
17 5 13 3 -3 4 -12 1 -19z m-1550 -10 c-3 -8 -6 -5 -6 6 -1 11 2 17 5 13 3 -3
4 -12 1 -19z m1610 -10 c-3 -8 -6 -5 -6 6 -1 11 2 17 5 13 3 -3 4 -12 1 -19z
m-2068 -3 c-15 -8 -46 -17 -70 -20 -49 -6 -37 2 31 21 60 16 70 16 39 -1z
m2098 -37 c-2 -13 -4 -5 -4 17 -1 22 1 32 4 23 2 -10 2 -28 0 -40z m88 32 c10
-11 16 -20 13 -20 -3 0 -13 9 -23 20 -10 11 -16 20 -13 20 3 0 13 -9 23 -20z
m-1764 -48 c2 -23 7 -42 11 -42 4 0 8 -12 7 -27 l-1 -28 -13 30 c-8 17 -14 50
-15 74 0 55 8 50 11 -7z m26 6 c-3 -7 -5 -2 -5 12 0 14 2 19 5 13 2 -7 2 -19
0 -25z m-598 8 c-2 -2 -15 -9 -29 -15 -24 -11 -24 -11 -6 3 16 13 49 24 35 12z
m2208 -58 c-3 -8 -6 -5 -6 6 -1 11 2 17 5 13 3 -3 4 -12 1 -19z m24 -59 l-10
-24 0 26 c-1 14 2 29 6 33 12 12 14 -9 4 -35z m-127 9 c-3 -13 -20 -61 -37
-108 -24 -66 -32 -80 -36 -62 -4 15 8 52 34 107 40 85 52 104 39 63z m-2251
-9 c-8 -8 -16 -8 -30 0 -16 9 -14 10 12 11 21 0 26 -3 18 -11z m2186 -21 c-17
-32 -58 -80 -83 -97 -12 -8 -2 6 20 31 23 25 47 55 53 67 7 11 14 21 17 21 2
0 -1 -10 -7 -22z m148 -10 c-3 -8 -6 -5 -6 6 -1 11 2 17 5 13 3 -3 4 -12 1
-19z m30 -30 c-3 -7 -5 -2 -5 12 0 14 2 19 5 13 2 -7 2 -19 0 -25z m-366 -41
c-10 -9 -11 -8 -5 6 3 10 9 15 12 12 3 -3 0 -11 -7 -18z m44 -67 c-3 -5 -16
-15 -28 -21 -19 -9 -19 -8 3 10 28 23 34 26 25 11z m-112 -55 c-3 -9 -8 -14
-10 -11 -3 3 -2 9 2 15 9 16 15 13 8 -4z m57 6 c0 -5 -7 -12 -16 -15 -14 -5
-15 -4 -4 9 14 17 20 19 20 6z m78 -41 c-22 -30 -35 -41 -22 -17 9 16 36 47
41 47 2 0 -6 -13 -19 -30z m-130 2 c18 14 -38 -59 -77 -101 -30 -33 -25 -18
19 52 19 31 37 51 38 46 2 -6 11 -4 20 3z m199 -64 c-3 -8 -6 -5 -6 6 -1 11 2
17 5 13 3 -3 4 -12 1 -19z m-14 -43 c-3 -9 -8 -14 -10 -11 -3 3 -2 9 2 15 9
16 15 13 8 -4z" />
		<path d="M2500 5854 c-114 -89 -170 -169 -170 -241 0 -24 4 -43 9 -43 13 0
200 152 250 204 47 48 52 70 8 36 -14 -11 -33 -20 -42 -20 -15 0 -17 7 -12 50
3 28 5 50 4 49 -1 0 -22 -16 -47 -35z" />
		<path d="M2810 5749 c-152 -31 -244 -64 -343 -123 -69 -41 -217 -169 -217
-188 0 -5 23 10 50 35 50 45 137 107 150 107 4 0 5 -47 2 -105 -7 -152 -19
-144 226 -138 118 3 231 1 282 -5 237 -31 349 -52 523 -98 51 -14 80 -13 66 0
-4 4 -125 38 -204 58 -22 5 -51 19 -63 31 -60 56 -89 178 -59 249 26 62 105
96 159 67 11 -6 22 -8 26 -5 19 19 -98 70 -240 105 -93 23 -270 28 -358 10z" />
		<path d="M3520 5501 c0 -6 4 -12 9 -15 12 -8 30 -79 44 -180 8 -55 18 -91 26
-94 26 -9 -12 250 -41 286 -12 14 -38 16 -38 3z" />
		<path d="M5231 6209 c11 -21 10 -22 -20 -16 -29 6 -31 5 -20 -14 10 -20 9 -21
-56 -14 l-67 8 18 -28 18 -28 -24 7 c-14 4 -32 10 -41 12 -9 2 -39 -11 -67
-29 -58 -40 -127 -52 -209 -39 -29 5 -53 8 -53 6 0 -1 23 -15 51 -31 l52 -28
-40 -10 c-51 -13 -72 -31 -66 -54 3 -13 -2 -21 -15 -25 -23 -8 -92 -72 -92
-86 0 -6 11 -10 25 -10 29 0 29 0 11 -43 -8 -20 -35 -48 -70 -71 -56 -39 -70
-53 -40 -42 32 12 33 -6 4 -50 -17 -24 -43 -50 -58 -58 l-27 -15 28 -1 c15 0
27 -2 27 -5 0 -3 -13 -29 -30 -58 -32 -57 -37 -72 -19 -61 7 4 9 -11 4 -51 -5
-39 -4 -56 3 -52 6 5 8 -21 5 -76 -4 -62 -11 -92 -29 -124 -32 -55 -30 -59 11
-27 20 15 38 24 41 21 4 -3 7 -53 8 -109 1 -57 6 -109 10 -116 9 -15 1 -15
-27 -1 -21 12 -21 11 -4 -8 22 -25 22 -36 -1 -29 -27 9 -47 -21 -61 -89 -9
-48 -9 -71 3 -115 7 -30 14 -45 15 -32 1 29 29 72 47 72 14 0 64 -60 64 -78 0
-6 -9 -16 -20 -22 -13 -7 -20 -21 -20 -39 0 -15 -9 -36 -20 -46 -29 -26 -26
-80 5 -117 29 -35 34 -15 5 22 -29 37 -26 72 9 93 34 20 77 22 84 5 4 -9 12
-5 25 11 l19 23 11 -43 c6 -24 19 -80 28 -124 22 -104 49 -177 78 -208 13 -14
26 -45 30 -68 7 -43 8 -44 24 -23 9 12 25 36 34 53 11 19 33 38 55 47 49 21
47 18 28 48 -14 22 -25 26 -64 26 -43 1 -48 4 -80 46 -20 26 -37 41 -41 34
-10 -17 -27 29 -41 113 -10 60 -10 89 -1 140 7 35 12 80 12 99 0 20 3 49 6 66
6 28 9 30 31 21 14 -5 28 -7 33 -4 9 6 40 132 40 165 0 11 -9 31 -21 43 -18
19 -20 30 -15 80 6 63 21 101 37 92 5 -4 9 -16 9 -28 0 -18 2 -19 11 -7 8 11
9 5 4 -24 -6 -36 -5 -38 9 -27 11 9 16 30 16 67 0 29 4 55 9 58 11 7 21 -27
21 -71 0 -18 5 -33 10 -33 6 0 10 5 10 11 0 5 4 8 8 5 5 -3 6 8 4 25 -3 20 0
29 10 29 19 0 38 -73 25 -97 -9 -16 -9 -16 6 -5 9 8 21 11 27 7 6 -4 10 4 10
17 0 26 29 74 30 49 0 -11 4 -10 19 3 18 16 20 16 41 -11 l21 -28 -5 34 c-5
30 -4 32 10 20 15 -12 16 -10 10 19 -5 21 -4 32 3 32 6 0 11 -19 11 -42 l1
-43 15 29 c12 21 19 25 27 17 18 -18 28 -12 15 9 -15 24 -6 34 21 25 26 -8 26
-25 0 -78 l-21 -42 36 34 c27 26 36 31 36 18 0 -22 9 -22 27 1 12 15 13 13 8
-18 l-6 -35 20 25 c11 14 21 28 21 33 0 4 5 7 11 7 7 0 9 -10 5 -25 -6 -24 -5
-25 14 -13 11 7 20 18 20 24 0 14 45 56 52 48 3 -3 11 10 17 28 15 43 47 81
61 73 25 -16 28 -50 7 -73 l-22 -23 28 10 c46 18 54 14 49 -21 -4 -29 -3 -31
10 -20 19 15 28 -2 28 -48 0 -28 1 -29 33 -18 31 11 57 30 57 42 0 3 -13 12
-30 21 -25 13 -30 22 -30 51 0 19 5 44 11 55 10 20 11 20 28 -3 9 -13 23 -41
29 -64 7 -22 21 -49 32 -59 14 -12 20 -31 20 -58 l0 -40 23 21 c29 27 76 28
118 3 36 -22 62 -64 47 -79 -9 -9 1 -82 19 -145 4 -17 2 -17 -18 -6 -14 7 -77
14 -149 17 -100 3 -136 1 -175 -12 -28 -10 -60 -14 -77 -11 -24 6 -28 3 -28
-14 0 -24 -10 -27 -29 -8 -10 10 -11 6 -5 -17 6 -26 5 -27 -15 -17 -15 8 -21
21 -21 44 0 22 -7 36 -21 45 -21 13 -21 12 -14 -15 8 -31 11 -59 24 -178 4
-44 13 -90 20 -102 8 -16 8 -35 1 -69 -8 -34 -8 -63 1 -102 6 -30 8 -70 4 -89
l-6 -34 41 21 c23 12 43 20 45 18 1 -2 10 -25 18 -53 9 -30 15 -41 16 -27 1
12 -6 39 -14 59 -12 28 -13 48 -5 96 9 57 8 64 -16 104 -14 24 -39 59 -55 77
-48 55 -35 76 19 31 17 -14 38 -25 48 -25 9 0 26 -7 36 -17 15 -13 23 -14 44
-5 15 7 22 17 18 24 -5 8 2 9 23 5 38 -8 103 2 103 16 0 6 -15 7 -37 4 -56 -9
-71 6 -28 26 35 17 36 16 88 -15 28 -17 60 -38 69 -46 15 -12 16 -12 12 5 -4
16 3 21 48 30 68 14 78 6 76 -61 -1 -28 3 -60 9 -70 10 -18 11 -18 18 5 11 35
57 82 66 67 9 -14 -5 -44 -33 -73 -11 -11 -32 -38 -47 -60 -20 -29 -41 -45
-70 -55 -51 -16 -48 -14 -101 -129 l-43 -94 17 -114 c13 -83 15 -140 10 -206
-6 -89 -8 -94 -48 -143 -30 -37 -46 -70 -60 -122 -17 -66 -22 -75 -65 -105
-25 -18 -67 -43 -93 -55 -47 -21 -48 -21 -48 -2 0 24 3 24 -51 5 -31 -11 -44
-12 -50 -4 -5 9 -27 9 -88 -1 -78 -12 -122 -10 -166 6 -15 5 -10 -3 15 -31 30
-32 32 -36 10 -25 -42 22 -181 162 -202 205 -11 22 -31 54 -43 71 -13 17 -40
84 -60 150 -21 68 -57 154 -84 201 -43 77 -69 107 -57 66 2 -10 10 -58 16
-108 8 -58 21 -104 36 -130 12 -22 39 -83 59 -135 65 -167 129 -280 208 -366
86 -93 126 -155 161 -252 14 -40 44 -103 67 -142 l42 -70 66 0 c127 0 341 20
378 35 32 13 46 29 87 103 27 48 66 112 86 142 20 30 52 83 70 117 35 68 35
72 9 213 -13 68 -20 250 -12 308 4 33 10 42 25 42 11 0 16 -4 13 -10 -8 -12
-3 -13 29 0 22 8 26 7 26 -8 0 -18 -29 -49 -66 -70 -16 -10 -13 -11 16 -8 39
4 90 53 90 87 0 20 26 79 35 79 3 0 11 -15 19 -32 l14 -33 1 47 c1 40 4 46 20
43 11 -2 30 8 45 24 l26 27 -31 -2 c-18 -1 -38 0 -46 3 -20 8 -16 68 7 116 12
23 15 34 7 25 -8 -10 -24 -18 -36 -18 -18 0 -21 6 -21 38 0 20 -3 47 -6 60 -6
19 -2 22 22 22 l29 1 -23 19 -24 20 24 10 c12 6 32 23 42 38 20 27 20 27 0 10
-30 -26 -34 -23 -34 32 0 44 4 54 34 83 18 17 39 42 45 55 6 12 16 22 20 22 8
0 -1 -40 -29 -133 -14 -47 8 -19 28 36 16 44 19 79 20 227 0 193 -8 261 -38
302 -26 36 -25 41 8 33 l27 -7 -24 26 -24 26 23 25 23 25 -21 0 c-19 0 -22 6
-22 39 0 57 11 102 23 94 7 -4 7 2 2 18 -4 13 -9 97 -11 187 -2 130 0 161 10
153 10 -8 11 -4 8 20 -2 16 0 29 4 28 26 -4 25 4 -6 36 -18 19 -61 81 -95 137
-49 82 -70 107 -105 128 -25 15 -45 31 -45 37 0 19 -140 125 -218 164 -43 22
-75 44 -72 49 3 6 -1 10 -9 10 -8 0 -20 9 -26 20 -8 16 -21 20 -60 20 -36 0
-50 4 -50 14 0 11 -8 12 -40 4 -47 -12 -59 -6 -36 17 27 28 18 27 -41 -4 -32
-17 -71 -35 -86 -41 l-29 -10 7 42 c7 37 5 41 -7 30 -12 -9 -19 -9 -34 3 -26
20 -36 18 -29 -5 6 -18 1 -17 -50 10 -70 37 -91 39 -74 9z m-77 -980 c-3 -5
-10 -7 -15 -3 -5 3 -7 10 -3 15 3 5 10 7 15 3 5 -3 7 -10 3 -15z m626 8 c29
-23 51 -68 48 -95 -4 -25 -5 -25 -13 -7 -5 11 -21 39 -37 62 -15 23 -28 44
-28 47 0 10 14 6 30 -7z m-780 -97 c0 -5 -4 -10 -10 -10 -5 0 -10 5 -10 10 0
6 5 10 10 10 6 0 10 -4 10 -10z m-461 -319 c17 -17 61 -135 61 -162 0 -20 -27
-7 -42 19 -10 16 -38 54 -63 84 -25 30 -45 60 -45 67 0 19 68 13 89 -8z m1155
-156 c4 -11 -1 -15 -17 -15 -35 0 -67 11 -61 21 9 15 71 10 78 -6z m463 -232
c-2 -32 -17 -85 -31 -117 -29 -65 -44 -72 -23 -10 8 21 22 72 32 112 9 39 20
72 22 72 3 0 3 -26 0 -57z" />
		<path d="M1779 6045 c-14 -8 -113 -44 -220 -80 -107 -37 -224 -82 -261 -102
-189 -99 -221 -213 -154 -548 20 -99 39 -206 43 -237 3 -32 9 -58 12 -58 3 0
17 30 29 68 100 288 297 633 504 880 43 50 77 92 75 92 -1 -1 -14 -7 -28 -15z" fill="#00a650"/>
		<path d="M6308 5968 c207 -247 404 -592 504 -880 12 -38 26 -68 29 -68 3 0 9
26 12 58 4 31 23 138 42 237 68 336 36 449 -153 548 -37 20 -154 65 -261 102
-106 36 -206 72 -222 81 -23 11 -12 -6 49 -78z" fill="#00a650"/>
		<path d="M4340 4961 c0 -5 5 -13 10 -16 6 -3 10 -2 10 4 0 5 -4 13 -10 16 -5
3 -10 2 -10 -4z" />
		<path d="M5328 4793 c-3 -24 -7 -28 -33 -26 -59 3 -108 12 -154 29 -41 14 -58
15 -132 5 -172 -23 -178 -26 -203 -96 -16 -50 -13 -57 20 -45 19 8 24 6 24 -6
0 -12 7 -10 29 9 28 23 97 44 108 33 3 -3 -19 -16 -48 -29 -61 -27 -90 -62
-61 -71 18 -6 117 -1 142 8 8 2 28 7 44 11 25 5 28 4 17 -8 -6 -8 -25 -21 -42
-27 -22 -10 -27 -15 -17 -21 22 -15 55 -10 94 13 l36 21 18 -23 c14 -19 23
-22 49 -17 21 5 31 3 31 -6 0 -6 8 0 18 15 12 20 22 26 35 22 16 -5 17 -3 8
14 -5 10 -7 23 -2 28 9 10 37 112 45 162 4 23 2 32 -9 32 -8 0 -15 -12 -17
-27z m-293 -153 c3 -6 -5 -10 -19 -10 -14 0 -28 5 -31 10 -3 6 5 10 19 10 14
0 28 -4 31 -10z" />
		<path d="M1078 4642 c-14 -21 -72 -89 -129 -152 -195 -220 -241 -298 -243
-410 -2 -113 41 -188 228 -400 65 -74 132 -153 147 -174 16 -21 29 -36 29 -33
0 4 -9 62 -20 129 -52 328 -52 640 1 952 11 65 19 120 17 121 -2 2 -15 -13
-30 -33z" fill="#00a650"/>
		<path d="M6930 4675 c0 -4 9 -60 20 -124 52 -309 52 -622 0 -949 -11 -67 -20
-125 -20 -129 0 -3 13 12 29 33 15 21 82 100 147 174 187 212 230 287 228 400
-2 110 -50 192 -233 398 -50 57 -109 126 -131 154 -22 27 -40 47 -40 43z" fill="#00a650"/>
		<path d="M4243 4526 c-36 -45 -78 -86 -111 -105 -29 -18 -62 -46 -74 -62 -12
-16 -31 -29 -42 -30 -12 0 -50 -17 -86 -37 l-64 -38 -12 -74 c-19 -114 -28
-150 -57 -211 -15 -31 -27 -61 -27 -66 0 -6 21 -31 48 -55 26 -25 52 -54 59
-64 6 -11 16 -18 23 -16 6 1 17 -11 23 -28 6 -16 17 -30 24 -30 7 0 13 -10 13
-22 0 -54 77 -125 206 -189 155 -79 194 -127 194 -249 0 -30 4 -72 9 -92 10
-45 -1 -119 -28 -173 -11 -22 -30 -74 -43 -115 -14 -41 -28 -83 -33 -93 -7
-18 3 -18 251 -12 143 4 260 8 261 9 1 1 -25 100 -57 220 -33 120 -60 231 -60
246 0 15 6 48 14 74 17 56 11 240 -9 272 -7 11 -43 45 -80 75 l-67 54 6 46 c5
35 -1 69 -24 145 -42 134 -62 216 -56 229 2 6 -9 31 -25 55 -16 24 -32 55 -35
69 -3 15 -15 48 -27 74 -15 34 -21 67 -20 105 3 93 -7 162 -22 162 -7 0 -40
-33 -72 -74z" />
		<path d="M4596 4432 c-4 -7 1 -27 12 -45 11 -17 22 -45 24 -61 3 -25 -1 -31
-27 -37 -23 -7 -34 -4 -52 13 -22 21 -23 21 -23 2 0 -13 13 -26 36 -38 34 -16
38 -16 54 -1 15 13 23 14 39 5 26 -13 26 -9 1 40 -11 22 -20 50 -20 64 0 14
-6 29 -14 33 -7 4 -15 15 -18 23 -3 10 -6 11 -12 2z" />
		<path d="M4535 4196 c16 -24 52 -36 106 -36 26 0 30 -5 50 -69 12 -38 19 -76
15 -86 -6 -17 -15 -17 -109 1 -27 6 -28 5 -15 -15 10 -16 23 -21 56 -21 40 0
43 -2 36 -22 -18 -61 -23 -66 -45 -61 -19 5 -20 3 -13 -18 5 -13 8 -39 8 -57
l-1 -33 28 31 c15 16 32 30 38 30 23 0 41 -14 41 -31 0 -20 -7 -22 -50 -19
l-25 1 23 -16 c12 -9 22 -22 22 -29 0 -7 -10 -18 -22 -24 -22 -10 -21 -11 10
-11 22 -1 34 -7 38 -18 10 -31 20 -47 35 -52 12 -3 11 -1 -1 14 -11 14 -12 19
-2 22 7 3 12 24 12 57 0 82 -31 331 -52 414 -10 38 -14 43 -32 37 -36 -12 -99
-5 -133 15 l-33 19 15 -23z" />
		<path d="M5445 4165 c-24 -17 -44 -23 -57 -19 -12 3 -27 -1 -38 -11 -12 -11
-24 -14 -32 -8 -7 4 -31 8 -54 8 l-41 0 8 -35 c5 -19 9 -39 9 -43 0 -5 9 -6
19 -2 36 11 70 -6 98 -51 16 -24 30 -44 33 -44 125 -9 133 -8 172 28 55 49 61
64 46 112 -13 40 -22 48 -33 30 -3 -5 -15 -15 -27 -21 -19 -10 -20 -9 -14 15
5 22 3 26 -14 26 -29 0 -70 -29 -70 -50 0 -9 -11 -22 -25 -28 -36 -17 -32 2
13 49 29 32 46 42 82 46 34 5 40 8 25 14 -36 14 -62 9 -100 -16z" />
		<path d="M5436 3903 c-4 -4 -55 -8 -114 -9 -92 0 -116 -4 -166 -26 -54 -23
-58 -26 -38 -37 11 -6 53 -11 91 -11 39 0 98 -7 130 -16 56 -16 61 -16 129 5
43 13 94 20 133 20 106 -2 128 6 109 41 -9 17 -17 20 -40 15 -16 -3 -52 1 -81
9 -55 17 -140 21 -153 9z" />
		<path d="M5606 3741 c-10 -11 -38 -32 -62 -46 -36 -21 -55 -25 -129 -25 -58 0
-103 6 -138 19 l-53 18 33 -61 c37 -69 58 -82 185 -111 69 -16 83 -17 120 -4
84 27 154 100 146 151 -3 18 -6 16 -31 -18 l-28 -39 7 39 c6 33 4 38 -9 33
-12 -5 -17 2 -19 30 l-3 35 -19 -21z" />
		<path d="M1190 3098 c0 -18 -13 -97 -28 -175 l-29 -142 71 -12 c104 -17 130
-17 134 2 2 9 -17 64 -42 123 -25 58 -56 135 -68 171 -25 71 -38 82 -38 33z" fill="#00a650"/>
		<path d="M6812 3063 c-13 -37 -41 -106 -62 -155 -34 -80 -37 -92 -27 -129 9
-37 12 -40 36 -36 14 3 54 9 89 13 34 3 62 7 62 8 0 0 -13 69 -30 151 -16 83
-30 165 -30 183 0 50 -13 38 -38 -35z" fill="#00a650"/>
		<path d="M1375 2844 c-20 -134 -102 -279 -297 -521 -32 -39 -103 -131 -158
-204 l-101 -133 38 -23 c81 -50 546 -273 693 -333 689 -279 1229 -405 2020
-472 188 -16 693 -16 885 1 776 65 1347 199 2030 476 131 53 641 298 712 341
l32 20 -115 149 c-241 317 -289 382 -331 453 -48 81 -93 203 -93 252 0 29 -2
31 -27 26 -109 -21 -558 -68 -878 -91 -625 -44 -1168 -59 -1945 -52 -983 9
-1712 55 -2411 153 l-46 6 -8 -48z m95 -239 c0 -8 5 -15 10 -15 6 0 10 7 10
15 0 12 14 15 65 15 51 0 65 -3 65 -15 0 -8 7 -15 15 -15 8 0 15 7 15 15 0 12
13 15 55 15 l55 0 0 -39 c0 -22 -4 -43 -10 -46 -5 -3 -10 -22 -10 -41 0 -27 4
-34 20 -34 20 0 20 -5 18 -222 l-3 -222 -112 -44 -112 -44 -111 42 -110 43 0
223 c0 197 2 224 16 224 13 0 14 11 8 80 l-7 80 62 0 c48 0 61 -3 61 -15z
m4930 0 c0 -8 5 -15 10 -15 6 0 10 7 10 15 0 12 14 15 65 15 51 0 65 -3 65
-15 0 -8 7 -15 15 -15 8 0 15 7 15 15 0 12 13 15 55 15 l55 0 0 -39 c0 -22 -4
-43 -10 -46 -5 -3 -10 -22 -10 -41 0 -27 4 -34 20 -34 20 0 20 -5 18 -222 l-3
-222 -112 -44 -112 -44 -111 42 -110 43 0 223 c0 197 2 224 16 224 13 0 14 11
8 80 l-7 80 62 0 c48 0 61 -3 61 -15z m-3999 -54 c17 -20 19 -40 19 -156 0
-107 -3 -135 -15 -145 -14 -12 -13 -15 5 -35 18 -19 20 -34 20 -133 0 -141
-12 -176 -67 -191 -21 -6 -95 -11 -165 -11 l-128 0 0 351 0 351 156 -3 c150
-4 157 -5 175 -28z m323 20 c5 -7 126 -666 126 -685 0 -4 -33 -6 -72 -4 l-73
3 -5 40 -5 40 -45 0 -45 0 -5 -40 -5 -40 -72 -3 c-40 -2 -73 0 -73 5 0 17 122
677 126 685 7 11 141 10 148 -1z m492 -24 c23 -27 24 -32 24 -207 0 -179 -8
-230 -36 -230 -25 0 -23 -18 11 -114 19 -53 35 -101 35 -107 0 -6 -29 -9 -72
-7 l-73 3 -34 108 c-19 59 -38 107 -41 107 -4 0 -7 -48 -6 -107 l1 -108 -70 0
-70 0 -3 349 -2 348 156 -3 156 -4 24 -28z m624 -282 c31 -170 60 -327 64
-348 l7 -38 -73 3 -72 3 -9 43 c-8 42 -8 42 -53 42 -39 0 -44 -3 -44 -22 -1
-62 -7 -68 -81 -68 -55 0 -69 3 -69 15 0 13 100 580 116 658 l6 28 76 -3 76
-3 56 -310z m326 275 c6 -19 15 -50 19 -67 l7 -33 -46 0 -46 0 -2 -277 -3
-278 -70 0 -70 0 -3 278 -2 277 -46 0 c-33 0 -45 4 -41 13 2 6 12 38 21 70
l17 58 127 -3 127 -3 11 -35z m204 -240 l0 -280 70 0 c68 0 70 -1 65 -22 -3
-13 -9 -43 -13 -68 l-8 -45 -129 0 -130 0 -3 335 c-1 184 0 341 3 347 3 9 27
13 75 13 l70 0 0 -280z m450 250 c4 -14 10 -44 14 -67 l6 -43 -75 0 -75 0 0
-75 0 -75 55 0 55 0 0 -65 0 -65 -55 0 -55 0 0 -70 0 -70 70 0 c80 0 79 1 58
-90 l-12 -51 -130 3 -131 3 -3 335 c-1 184 0 341 3 348 3 10 36 12 137 10 131
-3 132 -3 138 -28z m227 -95 l31 -120 1 123 1 123 73 -3 72 -3 0 -345 0 -345
-72 -3 c-72 -3 -72 -3 -79 25 -4 15 -20 75 -35 133 l-27 105 -1 -133 -1 -133
-62 3 -63 3 -3 348 -2 348 67 -3 68 -3 32 -120z m544 -200 c32 -176 60 -333
63 -348 l6 -28 -72 3 -72 3 -9 43 c-8 42 -8 42 -53 42 -39 0 -44 -3 -44 -22
-1 -62 -7 -68 -81 -68 -59 0 -69 2 -69 18 0 9 27 166 60 347 33 181 60 331 60
333 0 1 35 2 77 0 l77 -3 57 -320z m247 43 l2 -278 66 0 66 0 -7 -47 c-14 -97
-8 -93 -150 -93 l-125 0 0 350 0 351 73 -3 72 -3 3 -277z m-2028 -494 c0 -20
-24 -32 -62 -31 -29 1 -38 5 -38 18 0 10 6 19 13 22 25 8 87 2 87 -9z m-1570
-81 l-1 -38 -20 28 c-13 16 -30 27 -45 27 -21 0 -24 -5 -24 -35 0 -42 16 -46
32 -7 l12 27 4 -32 c2 -18 2 -48 0 -65 l-4 -33 -12 28 c-16 38 -32 34 -32 -8
0 -32 2 -35 29 -35 20 0 36 9 50 26 l21 27 0 -37 0 -36 -92 0 c-68 1 -88 3
-75 11 14 8 17 24 17 89 0 65 -3 81 -17 89 -13 8 5 10 70 11 l87 0 0 -37z
m144 -19 l46 -56 0 42 c0 29 -6 47 -17 56 -15 11 -4 13 76 14 78 0 92 -2 79
-12 -14 -12 -13 -18 7 -63 l22 -50 23 45 c18 35 20 48 11 62 -10 17 -5 18 81
18 68 -1 88 -3 76 -11 -15 -8 -18 -24 -18 -89 0 -65 3 -81 18 -89 13 -8 3 -10
-43 -10 -46 0 -56 2 -42 10 24 14 26 166 2 175 -24 10 -40 -10 -81 -106 -21
-49 -41 -90 -45 -90 -3 0 -23 40 -44 90 -61 146 -85 147 -85 4 0 -52 -3 -94
-8 -94 -4 0 -34 34 -67 77 l-60 76 -3 -59 c-3 -46 0 -61 14 -71 15 -11 12 -13
-27 -13 -35 1 -40 3 -26 11 14 8 17 24 17 86 0 60 -4 78 -17 89 -16 12 -13 13
24 14 39 0 45 -4 87 -56z m626 19 c0 -40 -6 -41 -32 -8 -22 28 -68 34 -87 12
-42 -51 -15 -157 40 -157 14 0 19 7 19 30 0 17 -4 30 -10 30 -5 0 -10 5 -10
10 0 6 23 10 50 10 28 0 50 -4 50 -10 0 -5 -4 -10 -9 -10 -6 0 -11 -14 -13
-32 -3 -28 -8 -33 -41 -41 -131 -31 -213 103 -113 185 16 14 37 17 89 16 l67
-2 0 -33z m176 -55 c31 -73 44 -94 62 -96 21 -3 22 0 22 82 0 70 -3 87 -17 95
-30 17 113 14 146 -4 58 -29 66 -124 14 -165 -23 -18 -40 -20 -152 -20 -77 0
-121 4 -112 9 23 15 5 41 -29 41 -34 0 -52 -26 -29 -41 10 -6 1 -9 -25 -9 -36
0 -38 1 -24 18 9 9 33 54 53 100 21 45 41 82 45 82 4 0 25 -42 46 -92z m444
55 l-1 -38 -20 28 c-13 16 -30 27 -45 27 -21 0 -24 -5 -24 -35 0 -42 16 -46
32 -7 l12 27 4 -32 c2 -18 2 -48 0 -65 l-4 -33 -12 28 c-16 38 -32 34 -32 -8
0 -32 2 -35 29 -35 20 0 36 9 50 26 l21 27 0 -37 0 -36 -92 1 c-51 0 -87 3
-80 6 8 3 12 32 12 93 0 61 -4 90 -12 93 -7 3 26 6 75 6 l87 1 0 -37z m142
-18 l43 -56 3 37 c2 24 -3 42 -14 55 -17 18 -16 19 21 19 30 0 36 -3 27 -12
-8 -8 -12 -46 -12 -105 0 -51 -3 -93 -8 -93 -4 0 -34 34 -67 75 l-60 75 -3
-57 c-2 -46 1 -60 14 -70 15 -11 12 -13 -27 -13 -35 1 -40 3 -26 11 14 8 17
24 17 86 0 60 -4 78 -17 89 -16 12 -13 13 24 14 39 0 45 -4 85 -55z m275 40
c27 -19 46 -76 38 -114 -10 -48 -49 -76 -105 -76 -37 0 -54 5 -74 24 -47 44
-43 131 8 166 27 19 106 19 133 0z m193 -22 c0 -38 -11 -43 -25 -10 -7 15 -19
22 -37 22 -39 0 -38 -16 3 -42 54 -34 69 -51 69 -76 0 -39 -35 -62 -96 -63
l-54 -1 0 39 c0 41 15 51 25 17 9 -29 50 -46 70 -29 23 19 19 28 -23 49 -48
24 -64 44 -64 76 0 42 19 56 78 54 l54 -2 0 -34z m258 12 c34 -29 44 -63 30
-111 -14 -51 -41 -64 -128 -64 -56 1 -71 3 -57 11 14 8 17 24 17 89 0 65 -3
81 -17 89 -14 8 0 10 54 11 62 0 75 -3 101 -25z m222 -10 c0 -40 -11 -45 -25
-12 -6 13 -21 23 -37 25 -26 3 -28 1 -28 -34 0 -31 2 -35 15 -24 8 7 15 19 15
27 0 8 5 11 10 8 6 -3 10 -28 10 -55 0 -27 -4 -52 -10 -55 -5 -3 -10 0 -10 8
0 8 -7 20 -15 27 -13 11 -15 7 -15 -24 0 -33 2 -36 29 -36 20 0 36 8 50 28 19
25 20 26 21 5 0 -50 -6 -53 -104 -52 -50 1 -83 3 -73 6 14 4 17 17 17 88 0 69
-3 86 -17 94 -13 8 7 10 75 11 l92 0 0 -35z m160 -4 l0 -34 -21 27 c-13 17
-29 26 -42 24 -35 -5 -30 -26 12 -48 104 -52 83 -142 -31 -137 l-48 2 0 38 c0
20 5 37 10 37 6 0 10 -7 10 -15 0 -19 46 -49 65 -41 27 10 16 35 -27 62 -49
31 -58 41 -58 68 0 37 30 57 82 54 47 -3 48 -3 48 -37z m180 24 c56 -29 63
-125 13 -165 -21 -16 -40 -20 -102 -19 -42 1 -68 3 -58 6 14 4 17 17 17 88 0
69 -3 86 -17 94 -30 17 113 14 147 -4z m230 -22 l-1 -38 -20 28 c-13 16 -30
27 -45 27 -21 0 -24 -5 -24 -36 0 -39 23 -44 28 -6 6 40 22 12 22 -39 0 -50
-13 -65 -25 -29 -10 32 -25 23 -25 -15 0 -32 2 -35 29 -35 20 0 36 9 50 26
l21 27 0 -37 0 -36 -92 1 c-51 0 -87 3 -80 6 8 3 12 32 12 93 0 61 -4 90 -12
93 -7 3 26 6 75 6 l87 1 0 -37z m200 -57 c0 -66 4 -96 13 -99 6 -3 -15 -5 -48
-5 -33 0 -52 2 -42 5 14 4 17 16 17 78 0 62 -3 74 -17 77 -14 3 -12 7 12 21
60 33 65 28 65 -77z m164 72 c23 -33 20 -100 -6 -133 -29 -38 -108 -70 -108
-45 0 6 6 10 13 10 16 0 57 37 57 50 0 6 -10 10 -23 10 -13 0 -28 5 -35 12
-17 17 -15 78 5 100 23 26 78 24 97 -4z m141 -25 c0 -23 3 -45 8 -49 14 -14 7
-71 -10 -86 -38 -33 -113 -35 -113 -2 0 23 26 27 53 9 18 -11 27 -13 32 -5 8
13 -2 60 -13 60 -4 0 -14 4 -21 9 -12 8 -11 13 10 30 23 19 23 21 7 37 -14 14
-20 15 -33 4 -23 -19 -31 -3 -10 20 14 15 29 20 54 18 35 -3 36 -4 36 -45z
m175 40 c0 -27 -67 -203 -77 -203 -18 0 -16 17 7 85 11 32 20 62 20 67 0 11
-58 10 -65 -2 -13 -21 -25 -9 -19 18 4 15 9 30 11 35 5 9 123 9 123 0z" fill="#00a650"/>
		<path d="M1366 2530 c6 -70 5 -80 -10 -80 -14 0 -16 -23 -16 -212 l0 -213 99
-37 c54 -21 104 -38 112 -38 13 0 199 68 208 76 2 2 2 6 -1 9 -3 3 -30 -4 -59
-16 -124 -49 -153 -57 -179 -46 -14 6 -56 22 -95 37 l-70 26 -3 198 -2 197
205 -3 c159 -2 205 0 205 10 0 6 -7 12 -15 12 -11 0 -15 12 -15 44 0 25 5 48
10 51 6 3 10 19 10 36 0 28 -2 29 -45 29 -38 0 -45 -3 -45 -20 0 -16 -7 -20
-30 -20 -23 0 -30 4 -30 20 0 17 -7 20 -45 20 -38 0 -45 -3 -45 -20 0 -15 -7
-20 -25 -20 -18 0 -25 5 -25 20 0 17 -7 20 -51 20 l-50 0 7 -80z m64 50 c0
-17 7 -20 50 -20 43 0 50 3 50 20 0 15 7 20 25 20 18 0 25 -5 25 -20 0 -17 7
-20 50 -20 44 0 50 3 50 21 0 16 5 20 28 17 21 -2 27 -8 27 -28 l0 -25 -182
-3 -183 -2 0 23 c0 30 7 37 37 37 16 0 23 -6 23 -20z m286 -72 c-2 -14 -11
-24 -24 -26 -31 -5 -27 -22 4 -22 14 0 23 -4 19 -10 -3 -5 -17 -10 -31 -10
-13 0 -24 5 -24 10 0 6 -7 10 -15 10 -8 0 -15 -4 -15 -10 0 -5 -13 -10 -30
-10 -16 0 -30 5 -30 10 0 6 -9 10 -20 10 -11 0 -20 -4 -20 -10 0 -5 -11 -10
-25 -10 -14 0 -25 5 -25 10 0 6 -7 10 -15 10 -8 0 -15 -4 -15 -10 0 -5 -13
-10 -30 -10 -16 0 -30 5 -30 10 0 6 9 10 20 10 11 0 20 5 20 10 0 6 -9 10 -20
10 -11 0 -20 4 -20 9 0 5 -3 16 -6 25 -5 14 13 16 165 16 l171 0 -4 -22z" fill="#00a650"/>
		<path d="M1446 2495 c4 -8 12 -15 20 -15 8 0 14 7 14 15 0 8 -9 15 -20 15 -13
0 -18 -5 -14 -15z" fill="#00a650"/>
		<path d="M1532 2498 c7 -19 38 -22 38 -4 0 10 -9 16 -21 16 -12 0 -19 -5 -17
-12z" />
		<path d="M1630 2494 c0 -9 5 -14 12 -12 18 6 21 28 4 28 -9 0 -16 -7 -16 -16z" fill="#00a650"/>
		<path d="M1495 2470 c3 -5 13 -10 21 -10 8 0 14 5 14 10 0 6 -9 10 -21 10 -11
0 -17 -4 -14 -10z" fill="#00a650"/>
		<path d="M1580 2470 c0 -5 6 -10 14 -10 8 0 18 5 21 10 3 6 -3 10 -14 10 -12
0 -21 -4 -21 -10z" fill="#00a650"/>
		<path d="M1390 2244 c0 -139 2 -155 15 -144 27 22 30 1 4 -28 -15 -17 -10 -15
14 7 42 40 44 43 20 34 -16 -6 -16 -4 2 18 11 13 33 39 49 57 l30 32 -31 0
c-17 0 -33 -5 -35 -12 -2 -6 -10 -8 -16 -4 -16 10 -16 172 0 182 12 7 32 -14
81 -85 34 -50 41 -47 115 38 l53 61 -150 0 -151 0 0 -156z" fill="#00a650"/>
		<path d="M1689 2373 l-24 -28 28 24 c25 23 32 31 24 31 -2 0 -14 -12 -28 -27z" fill="#00a650"/>
		<path d="M1679 2332 c-19 -20 -42 -46 -49 -57 -8 -11 9 4 37 34 29 30 51 56
50 58 -2 1 -19 -14 -38 -35z" fill="#00a650"/>
		<path d="M1470 2287 c0 -18 5 -27 15 -27 13 0 14 4 4 23 -17 33 -19 33 -19 4z" fill="#00a650"/>
		<path d="M1555 2228 l-50 -53 53 50 c28 27 52 51 52 52 0 8 -9 -1 -55 -49z" fill="#00a650"/>
		<path d="M1531 2175 c-28 -30 -51 -57 -51 -62 0 -4 16 10 35 32 l34 40 1 -52
c0 -40 4 -53 15 -53 11 0 15 12 15 50 0 28 3 50 8 49 4 0 21 -21 37 -46 46
-70 55 -67 55 16 0 74 -16 99 -22 34 l-3 -37 -25 37 c-14 20 -30 39 -37 41 -6
3 -34 -19 -62 -49z" fill="#00a650"/>
		<path d="M1423 2058 c-2 -5 64 -8 146 -8 83 0 151 3 151 8 0 4 -66 7 -146 7
-80 0 -148 -3 -151 -7z" fill="#00a650"/>
		<path d="M6296 2530 c6 -70 5 -80 -10 -80 -14 0 -16 -23 -16 -212 l0 -213 99
-37 c54 -21 104 -38 112 -38 13 0 199 68 208 76 2 2 2 6 -1 9 -3 3 -30 -4 -59
-16 -124 -49 -153 -57 -179 -46 -14 6 -56 22 -95 37 l-70 26 -3 198 -2 197
205 -3 c159 -2 205 0 205 10 0 6 -7 12 -15 12 -11 0 -15 12 -15 44 0 25 5 48
10 51 6 3 10 19 10 36 0 28 -2 29 -45 29 -38 0 -45 -3 -45 -20 0 -16 -7 -20
-30 -20 -23 0 -30 4 -30 20 0 17 -7 20 -45 20 -38 0 -45 -3 -45 -20 0 -15 -7
-20 -25 -20 -18 0 -25 5 -25 20 0 17 -7 20 -51 20 l-50 0 7 -80z m64 50 c0
-17 7 -20 50 -20 43 0 50 3 50 20 0 15 7 20 25 20 18 0 25 -5 25 -20 0 -17 7
-20 50 -20 44 0 50 3 50 21 0 16 5 20 28 17 21 -2 27 -8 27 -28 l0 -25 -182
-3 -183 -2 0 23 c0 30 7 37 37 37 16 0 23 -6 23 -20z m286 -72 c-2 -14 -11
-24 -24 -26 -31 -5 -27 -22 4 -22 14 0 23 -4 19 -10 -3 -5 -17 -10 -31 -10
-13 0 -24 5 -24 10 0 6 -7 10 -15 10 -8 0 -15 -4 -15 -10 0 -5 -13 -10 -30
-10 -16 0 -30 5 -30 10 0 6 -9 10 -20 10 -11 0 -20 -4 -20 -10 0 -5 -11 -10
-25 -10 -14 0 -25 5 -25 10 0 6 -7 10 -15 10 -8 0 -15 -4 -15 -10 0 -5 -13
-10 -30 -10 -16 0 -30 5 -30 10 0 6 9 10 20 10 11 0 20 5 20 10 0 6 -9 10 -20
10 -11 0 -20 4 -20 9 0 5 -3 16 -6 25 -5 14 13 16 165 16 l171 0 -4 -22z" fill="#00a650"/>
		<path d="M6376 2495 c4 -8 12 -15 20 -15 8 0 14 7 14 15 0 8 -9 15 -20 15 -13
0 -18 -5 -14 -15z" fill="#00a650"/>
		<path d="M6462 2498 c7 -19 38 -22 38 -4 0 10 -9 16 -21 16 -12 0 -19 -5 -17
-12z" fill="#00a650"/>
		<path d="M6560 2494 c0 -17 22 -14 28 4 2 7 -3 12 -12 12 -9 0 -16 -7 -16 -16z" fill="#00a650"/>
		<path d="M6425 2470 c3 -5 13 -10 21 -10 8 0 14 5 14 10 0 6 -9 10 -21 10 -11
0 -17 -4 -14 -10z" fill="#00a650"/>
		<path d="M6510 2470 c0 -5 6 -10 14 -10 8 0 18 5 21 10 3 6 -3 10 -14 10 -12
0 -21 -4 -21 -10z" fill="#00a650"/>
		<path d="M6320 2244 c0 -139 2 -155 15 -144 27 22 30 1 4 -28 -15 -17 -10 -15
14 7 42 40 44 43 20 34 -16 -6 -16 -4 2 18 11 13 33 39 49 57 l30 32 -31 0
c-17 0 -33 -5 -35 -12 -2 -6 -10 -8 -16 -4 -16 10 -16 172 0 182 12 7 32 -14
81 -85 34 -50 41 -47 115 38 l53 61 -150 0 -151 0 0 -156z" fill="#00a650"/>
		<path d="M6619 2373 l-24 -28 28 24 c15 14 27 26 27 28 0 8 -8 1 -31 -24z" fill="#00a650"/>
		<path d="M6609 2332 c-19 -20 -42 -46 -49 -57 -8 -11 9 4 37 34 29 30 51 56
50 58 -2 1 -19 -14 -38 -35z" fill="#00a650"/>
		<path d="M6400 2287 c0 -18 5 -27 15 -27 13 0 14 4 4 23 -17 33 -19 33 -19 4z" fill="#00a650"/>
		<path d="M6485 2228 l-50 -53 53 50 c48 46 57 55 49 55 -1 0 -25 -24 -52 -52z" fill="#00a650"/>
		<path d="M6461 2175 c-28 -30 -51 -57 -51 -62 0 -4 16 10 35 32 l34 40 1 -52
c0 -40 4 -53 15 -53 11 0 15 12 15 50 0 28 3 50 8 49 4 0 21 -21 37 -46 46
-70 55 -67 55 16 0 74 -16 99 -22 34 l-3 -37 -25 37 c-14 20 -30 39 -37 41 -6
3 -34 -19 -62 -49z" fill="#00a650"/>
		<path d="M6353 2058 c-2 -5 64 -8 146 -8 83 0 151 3 151 8 0 4 -66 7 -146 7
-80 0 -148 -3 -151 -7z" fill="#00a650"/>
		<path d="M2210 2365 l0 -85 34 0 34 0 4 58 c6 100 2 112 -38 112 l-34 0 0 -85z" fill="#00a650"/>
		<path d="M2210 2084 l0 -75 38 3 37 3 3 73 3 72 -41 0 -40 0 0 -76z" fill="#00a650"/>
		<path d="M2636 2188 c-4 -40 -9 -80 -11 -88 -4 -11 3 -15 26 -15 25 0 29 3 25
20 -2 11 -8 50 -11 88 -4 37 -11 67 -15 67 -4 0 -10 -33 -14 -72z" fill="#00a650"/>
		<path d="M3024 2404 c3 -26 6 -78 6 -116 l0 -69 33 3 32 3 0 110 0 110 -39 3
-39 3 7 -47z" fill="#00a650"/>
		<path d="M3697 2223 c-4 -34 -9 -79 -13 -101 -6 -39 -6 -40 21 -34 l27 5 -7
69 c-12 115 -20 134 -28 61z" fill="#00a650"/>
		<path d="M5446 2220 c-4 -36 -10 -81 -13 -101 -5 -35 -4 -36 22 -31 l27 5 -7
69 c-12 116 -20 134 -29 58z" fill="#00a650"/>
		<path d="M3330 1659 c0 -71 2 -80 17 -77 54 10 50 158 -3 158 -11 0 -14 -19
-14 -81z" fill="#00a650"/>
		<path d="M3106 1654 c-9 -23 -8 -24 14 -24 11 0 20 2 20 4 0 12 -13 36 -20 36
-4 0 -11 -7 -14 -16z" fill="#00a650"/>
		<path d="M3949 1723 c-22 -26 -17 -122 6 -139 30 -22 49 -13 64 33 20 57 2
123 -33 123 -13 0 -30 -7 -37 -17z" fill="#00a650"/>
		<path d="M4410 1660 c0 -70 2 -80 18 -80 30 0 42 22 42 76 0 54 -17 84 -46 84
-11 0 -14 -17 -14 -80z" fill="#00a650"/>
		<path d="M4990 1660 c0 -61 3 -80 14 -80 36 0 55 69 32 123 -8 20 -22 37 -30
37 -13 0 -16 -14 -16 -80z" fill="#00a650"/>
		<path d="M5592 1699 c2 -24 9 -44 16 -47 10 -3 12 7 10 39 -2 24 -9 44 -16 47
-10 3 -12 -7 -10 -39z" fill="#00a650"/>
		<path d="M784 2710 c1 -91 -4 -120 -33 -217 l-33 -112 -137 -60 c-175 -77
-256 -108 -414 -161 -71 -23 -127 -43 -125 -44 44 -33 613 -396 713 -456 191
-113 394 -211 532 -256 179 -58 177 -51 -92 214 -126 125 -229 230 -227 234 1
4 -4 5 -12 2 -7 -3 -16 2 -20 12 -5 13 -4 14 7 6 7 -6 18 -7 26 -2 10 6 -12
22 -77 54 -51 25 -92 51 -92 57 0 15 49 83 164 229 235 299 371 498 352 517
-3 3 -124 24 -269 47 l-263 41 0 -105z" fill="#00a650"/>
		<path d="M6995 2759 c-137 -21 -251 -39 -253 -39 -1 0 10 -24 24 -52 45 -90
97 -162 345 -483 91 -117 139 -186 139 -196 0 -4 -46 -30 -102 -59 -57 -29
-105 -54 -106 -55 -2 -2 13 -2 34 0 l38 3 -55 -46 c-90 -76 -438 -425 -433
-434 26 -41 371 106 669 285 220 131 678 429 682 444 3 7 -30 22 -84 38 -109
33 -303 107 -445 170 l-108 47 -20 68 c-33 111 -43 180 -37 268 5 79 4 82 -17
81 -11 -1 -133 -18 -271 -40z" fill="#00a650"/>
		<path d="M5961 1429 c-21 -7 -35 -18 -39 -32 -14 -54 -95 -197 -133 -235 -51
-49 -89 -69 -165 -83 -72 -13 -133 -7 -359 39 -154 31 -200 36 -320 37 l-140
0 -75 -36 c-81 -39 -131 -76 -315 -239 -199 -175 -278 -220 -395 -220 -117 0
-196 45 -395 220 -183 162 -234 200 -311 237 -132 63 -222 63 -545 -1 -221
-44 -282 -50 -353 -37 -76 14 -114 34 -165 83 -39 39 -131 203 -131 233 0 7
-14 18 -31 24 -40 14 -44 14 -32 -1 5 -7 22 -45 37 -85 15 -40 44 -98 65 -130
118 -182 255 -213 611 -138 228 48 408 58 487 27 69 -26 174 -98 253 -173 155
-148 249 -220 346 -266 72 -35 86 -38 164 -38 78 0 92 3 164 38 97 46 191 118
346 266 79 75 184 147 253 173 79 31 259 21 487 -27 356 -75 493 -44 611 138
21 32 50 90 65 130 15 40 34 80 42 90 8 9 13 17 11 16 -2 0 -19 -5 -38 -10z" fill="#ffffff"/>
		<path d="M5670 1339 c-80 -22 -230 -56 -333 -78 l-188 -38 103 -22 c206 -43
312 -46 399 -13 37 15 95 67 128 116 23 35 46 79 38 75 -1 -1 -67 -19 -147
-40z" fill="#00a650" />
		<path d="M2230 1360 c0 -20 58 -97 100 -133 51 -44 114 -62 210 -60 77 1 307
39 315 53 2 4 -42 15 -98 25 -96 17 -471 105 -509 120 -11 4 -18 3 -18 -5z" fill="#00a650" />
		<path d="M3475 1118 c22 -18 75 -64 119 -103 139 -124 219 -185 286 -218 55
-27 75 -32 140 -32 123 0 170 29 474 290 121 104 121 104 -54 80 -67 -10 -216
-19 -355 -22 -200 -4 -272 -1 -433 16 -107 12 -199 21 -205 21 -6 0 6 -15 28
-32z" fill="#00a650" />
	</g>
</svg>
